<?xml version="1.0" encoding="UTF-8" standalone="no"?>
<svg
   xmlns:dc="http://purl.org/dc/elements/1.1/"
   xmlns:cc="http://creativecommons.org/ns#"
   xmlns:rdf="http://www.w3.org/1999/02/22-rdf-syntax-ns#"
   xmlns:svg="http://www.w3.org/2000/svg"
   xmlns="http://www.w3.org/2000/svg"
   xmlns:xlink="http://www.w3.org/1999/xlink"
   xmlns:sodipodi="http://sodipodi.sourceforge.net/DTD/sodipodi-0.dtd"
   xmlns:inkscape="http://www.inkscape.org/namespaces/inkscape"
   id="Sphere_wireframe"
   version="1.1"
   baseProfile="full"
   width="400"
   height="400"
   sodipodi:version="0.32"
   inkscape:version="0.46"
   sodipodi:docname="sphere_manifold.svg"
   inkscape:output_extension="org.inkscape.output.svg.inkscape">
  <metadata
     id="metadata48">
    <rdf:RDF>
      <cc:Work
         rdf:about="">
        <dc:format>image/svg+xml</dc:format>
        <dc:type
           rdf:resource="http://purl.org/dc/dcmitype/StillImage" />
      </cc:Work>
    </rdf:RDF>
  </metadata>
  <defs
     id="defs46">
    <inkscape:perspective
       sodipodi:type="inkscape:persp3d"
       inkscape:vp_x="0 : 200 : 1"
       inkscape:vp_y="0 : 1000 : 0"
       inkscape:vp_z="400 : 200 : 1"
       inkscape:persp3d-origin="200 : 133.33333 : 1"
       id="perspective50" />
  </defs>
  <sodipodi:namedview
     inkscape:window-height="1124"
     inkscape:window-width="1164"
     inkscape:pageshadow="2"
     inkscape:pageopacity="0.0"
     guidetolerance="10.0"
     gridtolerance="10.0"
     objecttolerance="10.0"
     borderopacity="1.0"
     bordercolor="#666666"
     pagecolor="#ffffff"
     id="base"
     showgrid="true"
     inkscape:zoom="2.47"
     inkscape:cx="126.05594"
     inkscape:cy="229.66127"
     inkscape:window-x="26"
     inkscape:window-y="116"
     inkscape:current-layer="Sphere_wireframe">
    <inkscape:grid
       type="xygrid"
       id="grid3200" />
  </sodipodi:namedview>
  <title
     id="title3">Sphere wireframe</title>
  <desc
     id="desc5">
     about: http://commons.wikimedia.org/wiki/Image:Sphere_wireframe.svg
     rights: GNU Free Documentation license,
             Creative Commons Attribution ShareAlike license
  </desc>
  <g
     id="sphere"
     transform="matrix(76.923094,0,0,-76.923094,109.31174,165.96154)"
     inkscape:export-filename="/home/sam/Projects/CompOnc/html/figs/manifold_sphere.png"
     inkscape:export-xdpi="600"
     inkscape:export-ydpi="600">
    <g
       id="sphere_back"
       transform="scale(-1,-1)"
       style="opacity:0.25">
      <g
         id="sphere_half">
        <g
           id="meridians"
           style="fill:#000000;stroke:none">
          <path
             id="meridian0"
             d="M -0.0309338,0.999521 C -0.011828654,1.0000321 0.015554676,0.55289362 0.030228578,0.00080934115 C 0.04490248,-0.55127494 0.041310247,-0.99924196 0.0222051,-0.999753 C 0.02511499,-0.99968837 0.028024585,-0.99961104 0.0309338,-0.999521 C 0.050038946,-0.99900994 0.053631179,-0.55104292 0.038957277,0.0010413411 C 0.024283375,0.55312561 -0.0030999536,1.000264 -0.0222051,0.999753 C -0.02511499,0.99968837 -0.028024585,0.99961104 -0.0309338,0.999521 L -0.0309338,0.999521 z" />
          <path
             id="meridian1"
             d="M -0.138135,0.990413 C -0.044157773,1.0033728 0.091970138,0.5698977 0.16586135,0.0223907 C 0.23975256,-0.5251163 0.22340567,-0.97917492 0.129356,-0.991598 C 0.13228407,-0.99121596 0.13521043,-0.99082096 0.138135,-0.990413 C 0.2320471,-0.97746216 0.24831354,-0.52357442 0.17447353,0.02355318 C 0.10063352,0.57068078 -0.035371508,1.0040125 -0.129356,0.991598 C -0.13228407,0.99121596 -0.13521043,0.99082096 -0.138135,0.990413 L -0.138135,0.990413 z" />
          <path
             id="meridian2"
             d="M -0.248942,0.968518 C -0.14378716,0.9954322 9.6851016e-05,0.83523832 0.12844208,0.5483558 C 0.2567873,0.26147329 0.35006575,-0.10844809 0.37309611,-0.42188709 C 0.39612646,-0.73532609 0.34540459,-0.94459234 0.240061,-0.970758 C 0.24302474,-0.97002489 0.2459851,-0.96927822 0.248942,-0.968518 C 0.41125639,-0.92697391 0.43343898,-0.45983507 0.29850752,0.075272753 C 0.16357607,0.61038057 -0.077455263,1.0111467 -0.240061,0.970758 C -0.24302474,0.97002489 -0.2459851,0.96927822 -0.248942,0.968518 z" />
          <path
             id="meridian3"
             d="M -0.366076,0.930585 C -0.22415314,0.98631845 -0.023819717,0.85973527 0.15930163,0.59861857 C 0.34242298,0.33750188 0.48044181,-0.018378738 0.52125823,-0.33468407 C 0.56207466,-0.6509894 0.49947209,-0.87954431 0.357082,-0.934073 C 0.36008559,-0.9329248 0.36308363,-0.93176212 0.366076,-0.930585 C 0.584926,-0.84464208 0.60064244,-0.3586602 0.40120256,0.15559419 C 0.20176268,0.66984858 -0.13751151,1.0181581 -0.357082,0.934073 C -0.36008559,0.9329248 -0.36308363,0.93176212 -0.366076,0.930585 L -0.366076,0.930585 z" />
          <path
             id="meridian4"
             d="M -0.491665,0.870784 C -0.32460463,0.96506125 -0.076867494,0.88524841 0.15793751,0.66150323 C 0.39274252,0.43775805 0.5788112,0.10419827 0.64583643,-0.21313864 C 0.71286167,-0.53047556 0.65062313,-0.78320053 0.482638,-0.87582 C 0.48565566,-0.8741569 0.4886647,-0.87247821 0.491665,-0.870784 C 0.74897882,-0.72557399 0.73989161,-0.21847857 0.47134871,0.26293029 C 0.20280581,0.74433916 -0.22389983,1.0184766 -0.482638,0.87582 C -0.48565566,0.8741569 -0.4886647,0.87247821 -0.491665,0.870784 L -0.491665,0.870784 z" />
          <path
             id="meridian5"
             d="M -0.625904,0.7799 C -0.45010447,0.92093108 -0.1684071,0.90146608 0.11265298,0.72886648 C 0.39371306,0.55626687 0.63123318,0.25687928 0.7353856,-0.0560709 C 0.83953802,-0.36902108 0.7944243,-0.64776329 0.617106,-0.78688 C 0.62005171,-0.78456982 0.62298442,-0.78224312 0.625904,-0.7799 C 0.89639564,-0.56290438 0.83821453,-0.038273677 0.4957927,0.39333964 C 0.15337087,0.82495297 -0.34427753,1.0009301 -0.617106,0.78688 C -0.62005171,0.78456982 -0.62298442,0.78224312 -0.625904,0.7799 z" />
          <path
             id="meridian6"
             d="M -0.763991,0.645227 C -0.60129057,0.83782453 -0.30498459,0.8915763 0.012760291,0.78613458 C 0.33050517,0.68069285 0.62113134,0.43217117 0.77462226,0.13464744 C 0.92811317,-0.1628763 0.92101242,-0.46393466 0.756008,-0.654562 C 0.75868809,-0.65146671 0.76134914,-0.64835498 0.763991,-0.645227 C 1.0140466,-0.34922236 0.87788444,0.17937459 0.45939969,0.53723131 C 0.040914951,0.89508804 -0.50241143,0.94753863 -0.756008,0.654562 C -0.75868809,0.65146671 -0.76134914,0.64835498 -0.763991,0.645227 L -0.763991,0.645227 z" />
          <path
             id="meridian7"
             d="M -0.891016,0.453973 C -0.76785873,0.69560659 -0.48344293,0.83116591 -0.14552273,0.80929278 C 0.19239747,0.78741966 0.53213059,0.61146001 0.74496491,0.34807814 C 0.95779923,0.084696266 1.0111776,-0.22581845 0.884877,-0.465824 C 0.88694967,-0.46188737 0.88899605,-0.45793695 0.891016,-0.453973 C 1.0801136,-0.082965054 0.83802451,0.42135542 0.34933068,0.67446702 C -0.13936314,0.92757862 -0.69095312,0.83433224 -0.884877,0.465824 C -0.88694967,0.46188737 -0.88899605,0.45793695 -0.891016,0.453973 L -0.891016,0.453973 z" />
          <path
             id="meridian8"
             d="M -0.978874,0.204465 C -0.92116879,0.48053209 -0.68007478,0.6956954 -0.34698708,0.76838976 C -0.013899378,0.84108413 0.36019385,0.7601817 0.63347951,0.55635136 C 0.90676517,0.35252102 1.0374094,0.056964567 0.975887,-0.218277 C 0.97691518,-0.21368009 0.97791088,-0.20907598 0.978874,-0.204465 C 1.0674137,0.21911695 0.70457084,0.65521624 0.16684807,0.77150565 C -0.37087471,0.88779506 -0.88149043,0.64059232 -0.975887,0.218277 C -0.97691518,0.21368009 -0.97791088,0.20907598 -0.978874,0.204465 L -0.978874,0.204465 z" />
          <path
             id="meridian9"
             d="M -0.9969,-0.078673 C -1.0192563,0.20468272 -0.84843219,0.4809399 -0.54920045,0.645348 C -0.2499687,0.80975611 0.13185176,0.83714064 0.45148317,0.717118 C 0.77111458,0.59709535 0.97961433,0.34804365 0.997924,0.0643977 C 0.99761672,0.069158515 0.99727538,0.07391707 0.9969,0.078673 C 0.96260771,0.51331251 0.49177113,0.8325767 -0.056891058,0.79322612 C -0.60555324,0.75387554 -1.0260092,0.37068699 -0.997924,-0.0643977 C -0.99761672,-0.069158515 -0.99727538,-0.07391707 -0.9969,-0.078673 L -0.9969,-0.078673 z" />
          <path
             id="meridian10"
             d="M -0.937248,-0.348662 C -1.0340667,-0.08838418 -0.94339516,0.21839914 -0.69960089,0.45540716 C -0.45580662,0.69241518 -0.096202796,0.82337336 0.24290911,0.79864431 C 0.58202102,0.77391526 0.84873926,0.59728381 0.941969,0.335699 C 0.94042516,0.3400308 0.93885145,0.34435191 0.937248,0.348662 C 0.78867046,0.74808329 0.25099781,0.91865925 -0.26598749,0.73038691 C -0.78297279,0.54211457 -1.085039,0.065728001 -0.941969,-0.335699 C -0.94042516,-0.3400308 -0.93885145,-0.34435191 -0.937248,-0.348662 L -0.937248,-0.348662 z" />
          <path
             id="meridian11"
             d="M -0.82314,-0.567839 C -0.97225455,-0.35160678 -0.95179857,-0.043503088 -0.76951884,0.23979179 C -0.58723911,0.52308667 -0.27100509,0.73825867 0.059423943,0.80382117 C 0.38985298,0.86938367 0.68395644,0.77531256 0.830356,0.557233 C 0.82797337,0.56078372 0.82556798,0.56431913 0.82314,0.567839 C 0.5940752,0.90000773 0.041085443,0.91818624 -0.41404101,0.60850903 C -0.86916746,0.29883182 -1.0552501,-0.22222646 -0.830356,-0.557233 C -0.82797337,-0.56078372 -0.82556798,-0.56431913 -0.82314,-0.567839 L -0.82314,-0.567839 z" />
          <path
             id="meridian12"
             d="M -0.686604,-0.727031 C -0.86082626,-0.56245689 -0.88975399,-0.27161006 -0.76244145,0.035458343 C -0.63512892,0.34252675 -0.37102163,0.61891561 -0.070052974,0.76004441 C 0.23091568,0.90117321 0.52277625,0.88548618 0.695094,0.718919 C 0.6922799,0.72163959 0.68944985,0.72434364 0.686604,0.727031 C 0.41869972,0.98009917 -0.10562471,0.86273792 -0.48613507,0.46453298 C -0.86664544,0.066328047 -0.96006969,-0.46278605 -0.695094,-0.718919 C -0.6922799,-0.72163959 -0.68944985,-0.72434364 -0.686604,-0.727031 L -0.686604,-0.727031 z" />
          <path
             id="meridian13"
             d="M -0.548873,-0.835906 C -0.72388417,-0.72094017 -0.77993594,-0.4551643 -0.69583951,-0.13904759 C -0.61174308,0.17706912 -0.40032862,0.49529831 -0.1415155,0.69534227 C 0.11729763,0.89538622 0.38402357,0.94672523 0.557834,0.829952 C 0.5548577,0.83195272 0.55187065,0.83393742 0.548873,0.835906 C 0.27945322,1.0128894 -0.18524875,0.78469728 -0.49020413,0.32566671 C -0.7951595,-0.13336386 -0.82540531,-0.65018622 -0.557834,-0.829952 C -0.5548577,-0.83195272 -0.55187065,-0.83393742 -0.548873,-0.835906 L -0.548873,-0.835906 z" />
          <path
             id="meridian14"
             d="M -0.418702,-0.908124 C -0.57558059,-0.8356918 -0.63979254,-0.59551793 -0.58708921,-0.27830025 C -0.53438589,0.038917429 -0.37279813,0.38484188 -0.16334698,0.62884023 C 0.046104161,0.87283857 0.27150291,0.97773079 0.427731,0.903906 C 0.42472836,0.90532699 0.42171865,0.90673301 0.418702,0.908124 C 0.17690327,1.0197646 -0.20776606,0.7056867 -0.44114768,0.20606713 C -0.67452929,-0.29355244 -0.6685271,-0.79011903 -0.427731,-0.903906 C -0.42472836,-0.90532699 -0.42171865,-0.90673301 -0.418702,-0.908124 L -0.418702,-0.908124 z" />
          <path
             id="meridian15"
             d="M -0.297621,-0.954684 C -0.4226384,-0.91556954 -0.48055048,-0.69738937 -0.44950818,-0.38245841 C -0.41846589,-0.06752744 -0.30319409,0.29621949 -0.14718249,0.57154809 C 0.0088291082,0.84687669 0.18183439,0.99187992 0.306562,0.951851 C 0.30358611,0.9528093 0.30060575,0.95375365 0.297621,0.954684 C 0.10471663,1.0150384 -0.18653055,0.63790815 -0.353213,0.11193185 C -0.51989546,-0.41404444 -0.49901921,-0.89008558 -0.306562,-0.951851 C -0.30358611,-0.9528093 -0.30060575,-0.95375365 -0.297621,-0.954684 L -0.297621,-0.954684 z" />
          <path
             id="meridian16"
             d="M -0.184086,-0.98291 C -0.31362834,-0.95847445 -0.33421429,-0.49851498 -0.23005336,0.044155604 C -0.12589244,0.58682619 0.063527267,1.0064779 0.192911,0.981216 C 0.18997189,0.98179388 0.18703019,0.98235855 0.184086,0.98291 C 0.054683066,1.0073193 -0.13447278,0.58786774 -0.23852162,0.045781132 C -0.34257045,-0.49630548 -0.3221555,-0.95598132 -0.192911,-0.981216 C -0.18997189,-0.98179388 -0.18703019,-0.98235855 -0.184086,-0.98291 L -0.184086,-0.98291 z" />
          <path
             id="meridian17"
             d="M -0.0755152,-0.997145 C -0.13252283,-0.99257857 -0.14296955,-0.54259664 -0.0988486,0.0079177689 C -0.054727647,0.55843218 0.027253269,1.0010105 0.0842609,0.996444 C 0.081346706,0.99669045 0.078431444,0.99692412 0.0755152,0.997145 C 0.018507569,1.0017114 -0.063473344,0.55913316 -0.1075943,0.0086187686 C -0.15171525,-0.54189562 -0.14126853,-0.99187755 -0.0842609,-0.996444 C -0.081346706,-0.99669045 -0.078431444,-0.99692412 -0.0755152,-0.997145 L -0.0755152,-0.997145 z" />
        </g>
        <g
           id="circles_of_latitude"
           style="fill:#000000;stroke:none">
          <path
             id="circle_of_latitude4"
             d="M -0.272931,-0.962033 C -0.099910176,-1.0111193 0.099910176,-1.0111193 0.272931,-0.962033 C 0.26420414,-0.96450908 0.255444,-0.9668663 0.246653,-0.969104 C 0.088836588,-1.0092709 -0.088836588,-1.0092709 -0.246653,-0.969104 C -0.255444,-0.9668663 -0.26420414,-0.96450908 -0.272931,-0.962033 L -0.272931,-0.962033 z" />
          <path
             id="circle_of_latitude5"
             d="M -0.591922,-0.805995 C -0.44585667,-0.91326507 -0.22887817,-0.97534188 4.7077995e-17,-0.97534188 C 0.22887817,-0.97534188 0.44585667,-0.91326507 0.591922,-0.805995 C 0.58805957,-0.80883154 0.58417681,-0.81164028 0.580274,-0.814421 C 0.43526731,-0.91773819 0.22322822,-0.97723087 4.6734481e-17,-0.97723087 C -0.22322822,-0.97723087 -0.43526731,-0.91773819 -0.580274,-0.814421 C -0.58417681,-0.81164028 -0.58805957,-0.80883154 -0.591922,-0.805995 z" />
          <path
             id="circle_of_latitude6"
             d="M -0.78025,-0.625467 C -0.63470409,-0.80703013 -0.33186854,-0.92220002 5.3161856e-17,-0.92220002 C 0.33186854,-0.92220002 0.63470409,-0.80703013 0.78025,-0.625467 C 0.77769217,-0.62865811 0.77511479,-0.63183351 0.772518,-0.634993 C 0.62614329,-0.81306881 0.32709998,-0.92554025 5.28947e-17,-0.92554025 C -0.32709998,-0.92554025 -0.62614329,-0.81306881 -0.772518,-0.634993 C -0.77511479,-0.63183351 -0.77769217,-0.62865811 -0.78025,-0.625467 L -0.78025,-0.625467 z" />
          <path
             id="circle_of_latitude7"
             d="M -0.904754,-0.425935 C -0.78906279,-0.6716823 -0.41993464,-0.84103979 5.7630409e-17,-0.84103979 C 0.41993464,-0.84103979 0.78906279,-0.6716823 0.904754,-0.425935 C 0.90312741,-0.42938973 0.90148105,-0.43283512 0.899815,-0.436271 C 0.78209313,-0.6790743 0.41585805,-0.84572804 5.744763e-17,-0.84572804 C -0.41585805,-0.84572804 -0.78209313,-0.6790743 -0.899815,-0.436271 C -0.90148105,-0.43283512 -0.90312741,-0.42938973 -0.904754,-0.425935 L -0.904754,-0.425935 z" />
          <path
             id="circle_of_latitude8"
             d="M -0.976952,-0.21346 C -0.91180804,-0.51161283 -0.49408255,-0.73432409 6.03479e-17,-0.73432409 C 0.49408255,-0.73432409 0.91180804,-0.51161283 0.976952,-0.21346 C 0.97616205,-0.21707547 0.97535204,-0.22068652 0.974522,-0.224293 C 0.90643248,-0.52013136 0.49071468,-0.74021787 6.0255133e-17,-0.74021787 C -0.49071468,-0.74021787 -0.90643248,-0.52013136 -0.974522,-0.224293 C -0.97535204,-0.22068652 -0.97616205,-0.21707547 -0.976952,-0.21346 L -0.976952,-0.21346 z" />
          <path
             id="circle_of_latitude9"
             d="M -0.999985,0.00549983 C -1.0011171,-0.21244522 -0.81076907,-0.41413029 -0.50090759,-0.52330226 C -0.19104611,-0.63247422 0.19104611,-0.63247422 0.50090759,-0.52330226 C 0.81076907,-0.41413029 1.0011171,-0.21244522 0.999985,0.00549983 C 1.0000052,0.0018333044 1.0000052,-0.0018333044 0.999985,-0.00549983 C 0.99824244,-0.34095327 0.55104469,-0.61233077 6.1231728e-17,-0.61233077 C -0.55104469,-0.61233077 -0.99824244,-0.34095327 -0.999985,-0.00549983 C -1.0000052,-0.0018333044 -1.0000052,0.0018333044 -0.999985,0.00549983 L -0.999985,0.00549983 z" />
          <path
             id="circle_of_latitude10"
             d="M -0.974522,0.224293 C -1.0278598,-0.0074513588 -0.85464733,-0.23688709 -0.53102042,-0.3631654 C -0.20739351,-0.4894437 0.20739351,-0.4894437 0.53102042,-0.3631654 C 0.85464733,-0.23688709 1.0278598,-0.0074513588 0.974522,0.224293 C 0.97535204,0.22068652 0.97616205,0.21707547 0.976952,0.21346 C 1.027494,-0.017862367 0.85311798,-0.24603876 0.52990832,-0.37151027 C 0.20669865,-0.49698179 -0.20669865,-0.49698179 -0.52990832,-0.37151027 C -0.85311798,-0.24603876 -1.027494,-0.017862367 -0.976952,0.21346 C -0.97616205,0.21707547 -0.97535204,0.22068652 -0.974522,0.224293 L -0.974522,0.224293 z" />
          <path
             id="circle_of_latitude11"
             d="M -0.899815,0.436271 C -1.0131042,0.2026102 -0.87044631,-0.049074364 -0.54456242,-0.19048442 C -0.21867854,-0.33189448 0.21867854,-0.33189448 0.54456242,-0.19048442 C 0.87044631,-0.049074364 1.0131042,0.2026102 0.899815,0.436271 C 0.90148105,0.43283512 0.90312741,0.42938973 0.904754,0.425935 C 1.0148575,0.1920569 0.87032359,-0.058648458 0.54427545,-0.19934317 C 0.21822731,-0.34003789 -0.21822731,-0.34003789 -0.54427545,-0.19934317 C -0.87032359,-0.058648458 -1.0148575,0.1920569 -0.904754,0.425935 C -0.90312741,0.42938973 -0.90148105,0.43283512 -0.899815,0.436271 L -0.899815,0.436271 z" />
          <path
             id="circle_of_latitude12"
             d="M -0.772518,0.634993 C -0.95433194,0.41380271 -0.85836915,0.14537786 -0.54199899,-0.009809348 C -0.22562883,-0.16499656 0.22562883,-0.16499656 0.54199899,-0.009809348 C 0.85836915,0.14537786 0.95433194,0.41380271 0.772518,0.634993 C 0.77511479,0.63183351 0.77769217,0.62865811 0.78025,0.625467 C 0.95838992,0.40324405 0.85962059,0.1355342 0.54248949,-0.01897219 C 0.22535839,-0.17347858 -0.22535839,-0.17347858 -0.54248949,-0.01897219 C -0.85962059,0.1355342 -0.95838992,0.40324405 -0.78025,0.625467 C -0.77769217,0.62865811 -0.77511479,0.63183351 -0.772518,0.634993 L -0.772518,0.634993 z" />
          <path
             id="circle_of_latitude13"
             d="M -0.580274,0.814421 C -0.84402991,0.62649505 -0.81991847,0.34575427 -0.52540855,0.1755969 C -0.23089863,0.0054395276 0.23089863,0.0054395276 0.52540855,0.1755969 C 0.81991847,0.34575427 0.84402991,0.62649505 0.580274,0.814421 C 0.58417681,0.81164028 0.58805957,0.80883154 0.591922,0.805995 C 0.85106663,0.61567974 0.82241216,0.33549652 0.52649177,0.16621844 C 0.23057137,-0.0030596371 -0.23057137,-0.0030596371 -0.52649177,0.16621844 C -0.82241216,0.33549652 -0.85106663,0.61567974 -0.591922,0.805995 C -0.58805957,0.80883154 -0.58417681,0.81164028 -0.580274,0.814421 L -0.580274,0.814421 z" />
          <path
             id="circle_of_latitude14"
             d="M -0.246653,0.969104 C -0.52773805,0.89756315 -0.6868757,0.715234 -0.62694545,0.53339064 C -0.56701519,0.35154728 -0.30466282,0.22069719 -1.1746304e-16,0.22069719 C 0.30466282,0.22069719 0.56701519,0.35154728 0.62694545,0.53339064 C 0.6868757,0.715234 0.52773805,0.89756315 0.246653,0.969104 C 0.255444,0.9668663 0.26420414,0.96450908 0.272931,0.962033 C 0.54755911,0.88412051 0.69636889,0.70050177 0.63082413,0.52042301 C 0.56527938,0.34034424 0.30298656,0.21217774 1.8303203e-16,0.21217774 C -0.30298656,0.21217774 -0.56527938,0.34034424 -0.63082413,0.52042301 C -0.69636889,0.70050177 -0.54755911,0.88412051 -0.272931,0.962033 C -0.26420414,0.96450908 -0.255444,0.9668663 -0.246653,0.969104 z" />
          <path
             id="circle_of_latitude15"
             d="M -0.496217,0.688788 C -0.496217,0.85562052 -0.27405308,0.990865 3.0384528e-17,0.990865 C 0.27405308,0.990865 0.496217,0.85562052 0.496217,0.688788 C 0.496217,0.52195548 0.27405308,0.386711 3.0384528e-17,0.386711 C -0.27405308,0.386711 -0.496217,0.52195548 -0.496217,0.688788 z M -0.503774,0.685327 C -0.503774,0.51595342 -0.2782267,0.378649 -9.2541782e-17,0.378649 C 0.2782267,0.378649 0.503774,0.51595342 0.503774,0.685327 C 0.503774,0.85470058 0.2782267,0.992005 3.0847261e-17,0.992005 C -0.2782267,0.992005 -0.503774,0.85470058 -0.503774,0.685327 z" />
          <path
             id="circle_of_latitude16"
             d="M -0.337917,0.746685 C -0.337917,0.86029605 -0.18662641,0.952396 2.0691449e-17,0.952396 C 0.18662641,0.952396 0.337917,0.86029605 0.337917,0.746685 C 0.337917,0.63307395 0.18662641,0.540974 2.0691449e-17,0.540974 C -0.18662641,0.540974 -0.337917,0.63307395 -0.337917,0.746685 z M -0.346117,0.744317 C -0.346117,0.62794895 -0.19115514,0.533614 -6.3580661e-17,0.533614 C 0.19115514,0.533614 0.346117,0.62794895 0.346117,0.744317 C 0.346117,0.86068505 0.19115514,0.95502 2.1193554e-17,0.95502 C -0.19115514,0.95502 -0.346117,0.86068505 -0.346117,0.744317 z" />
          <path
             id="circle_of_latitude17"
             d="M -0.16935,0.781894 C -0.16935,0.83883069 -0.093529422,0.884987 1.0369697e-17,0.884987 C 0.093529422,0.884987 0.16935,0.83883069 0.16935,0.781894 C 0.16935,0.72495731 0.093529422,0.678801 1.0369697e-17,0.678801 C -0.093529422,0.678801 -0.16935,0.72495731 -0.16935,0.781894 z M -0.177944,0.780692 C -0.177944,0.72086575 -0.098275758,0.672367 -3.2687783e-17,0.672367 C 0.098275758,0.672367 0.177944,0.72086575 0.177944,0.780692 C 0.177944,0.84051825 0.098275758,0.889017 1.0895928e-17,0.889017 C -0.098275758,0.889017 -0.177944,0.84051825 -0.177944,0.780692 z" />
        </g>
      </g>
    </g>
    <use
       id="sphere_front"
       xlink:href="#sphere_half"
       x="0"
       y="0"
       width="400"
       height="400" />
  </g>
  <rect
     style="opacity:1;fill:none;fill-opacity:0.95294118000000005;stroke:#0b3370;stroke-width:0.75000000000000000;stroke-miterlimit:4;stroke-dasharray:none;stroke-dashoffset:0;stroke-opacity:1"
     id="rect2425"
     width="3"
     height="3"
     x="115"
     y="170"
     inkscape:export-filename="/home/sam/Projects/CompOnc/html/figs/manifold_sphere.png"
     inkscape:export-xdpi="600"
     inkscape:export-ydpi="600" />
  <path
     style="fill:none;fill-rule:evenodd;stroke:#0b3370;stroke-width:0.75000000000000000;stroke-linecap:butt;stroke-linejoin:miter;stroke-opacity:1;stroke-miterlimit:4;stroke-dasharray:none"
     d="M 118,170 L 205,100"
     id="path3226"
     inkscape:export-filename="/home/sam/Projects/CompOnc/html/figs/manifold_sphere.png"
     inkscape:export-xdpi="600"
     inkscape:export-ydpi="600" />
  <rect
     y="100"
     x="145"
     height="60"
     width="60"
     id="rect3202"
     style="opacity:1;fill:#ffffff;fill-opacity:1;stroke:#0b3370;stroke-width:1;stroke-miterlimit:4;stroke-dasharray:none;stroke-dashoffset:0;stroke-opacity:1"
     inkscape:export-filename="/home/sam/Projects/CompOnc/html/figs/manifold_sphere.png"
     inkscape:export-xdpi="600"
     inkscape:export-ydpi="600" />
  <g
     id="g3232"
     inkscape:export-filename="/home/sam/Projects/CompOnc/html/figs/manifold_sphere.png"
     inkscape:export-xdpi="600"
     inkscape:export-ydpi="600">
    <path
       sodipodi:nodetypes="cc"
       id="path3204"
       d="M 155,100 L 155,160"
       style="fill:none;fill-rule:evenodd;stroke:#000000;stroke-width:0.5;stroke-linecap:butt;stroke-linejoin:miter;stroke-opacity:1;stroke-miterlimit:4;stroke-dasharray:none" />
    <path
       sodipodi:nodetypes="cc"
       id="path3206"
       d="M 165,160 L 165,100"
       style="fill:none;fill-rule:evenodd;stroke:#000000;stroke-width:0.5;stroke-linecap:butt;stroke-linejoin:miter;stroke-opacity:1;stroke-miterlimit:4;stroke-dasharray:none" />
    <path
       sodipodi:nodetypes="cc"
       id="path3208"
       d="M 175,100 L 175,160"
       style="fill:none;fill-rule:evenodd;stroke:#000000;stroke-width:0.5;stroke-linecap:butt;stroke-linejoin:miter;stroke-opacity:1;stroke-miterlimit:4;stroke-dasharray:none" />
    <path
       sodipodi:nodetypes="cc"
       id="path3210"
       d="M 185,160 L 185,100"
       style="fill:none;fill-rule:evenodd;stroke:#000000;stroke-width:0.5;stroke-linecap:butt;stroke-linejoin:miter;stroke-opacity:1;stroke-miterlimit:4;stroke-dasharray:none" />
    <path
       sodipodi:nodetypes="cc"
       id="path3212"
       d="M 195,100 L 195,160"
       style="fill:none;fill-rule:evenodd;stroke:#000000;stroke-width:0.5;stroke-linecap:butt;stroke-linejoin:miter;stroke-opacity:1;stroke-miterlimit:4;stroke-dasharray:none" />
    <path
       id="path3214"
       d="M 205,150 L 145,150"
       style="fill:none;fill-rule:evenodd;stroke:#000000;stroke-width:0.5;stroke-linecap:butt;stroke-linejoin:miter;stroke-opacity:1;stroke-miterlimit:4;stroke-dasharray:none" />
    <path
       id="path3216"
       d="M 145,140 L 205,140"
       style="fill:none;fill-rule:evenodd;stroke:#000000;stroke-width:0.5;stroke-linecap:butt;stroke-linejoin:miter;stroke-opacity:1;stroke-miterlimit:4;stroke-dasharray:none" />
    <path
       id="path3218"
       d="M 205,130 L 145,130"
       style="fill:none;fill-rule:evenodd;stroke:#000000;stroke-width:0.5;stroke-linecap:butt;stroke-linejoin:miter;stroke-opacity:1;stroke-miterlimit:4;stroke-dasharray:none" />
    <path
       id="path3220"
       d="M 145,120 L 205,120"
       style="fill:none;fill-rule:evenodd;stroke:#000000;stroke-width:0.5;stroke-linecap:butt;stroke-linejoin:miter;stroke-opacity:1;stroke-miterlimit:4;stroke-dasharray:none" />
    <path
       id="path3222"
       d="M 145,110 L 205,110"
       style="fill:none;fill-rule:evenodd;stroke:#000000;stroke-width:0.5;stroke-linecap:butt;stroke-linejoin:miter;stroke-opacity:1;stroke-miterlimit:4;stroke-dasharray:none" />
  </g>
  <path
     style="fill:none;fill-rule:evenodd;stroke:#0b3370;stroke-width:0.75000000000000000;stroke-linecap:butt;stroke-linejoin:miter;stroke-opacity:1;stroke-miterlimit:4;stroke-dasharray:none"
     d="M 115,170 L 145,100"
     id="path3224"
     inkscape:export-filename="/home/sam/Projects/CompOnc/html/figs/manifold_sphere.png"
     inkscape:export-xdpi="600"
     inkscape:export-ydpi="600" />
  <path
     style="fill:none;fill-rule:evenodd;stroke:#0b3370;stroke-width:0.75000000000000000;stroke-linecap:butt;stroke-linejoin:miter;stroke-opacity:1;stroke-miterlimit:4;stroke-dasharray:none"
     d="M 115,173 L 145,160"
     id="path3228"
     inkscape:export-filename="/home/sam/Projects/CompOnc/html/figs/manifold_sphere.png"
     inkscape:export-xdpi="600"
     inkscape:export-ydpi="600" />
  <path
     style="fill:none;fill-rule:evenodd;stroke:#0b3370;stroke-width:0.75000000000000000;stroke-linecap:butt;stroke-linejoin:miter;stroke-opacity:1;stroke-miterlimit:4;stroke-dasharray:none"
     d="M 118,173 L 205,160"
     id="path3230"
     inkscape:export-filename="/home/sam/Projects/CompOnc/html/figs/manifold_sphere.png"
     inkscape:export-xdpi="600"
     inkscape:export-ydpi="600" />
</svg>
